# xmcd
#
# Track frame offsets: 
#        150
#        41080
#        57118
#        117471
#        150942
#        194867
#
# Disc length: 2850 seconds
#
# Revision: 0
# Processed by: cddbd v1.4PL0 Copyright (c) Steve Scherf et al.
# Submitted via: ExactAudioCopy v0.90b4
#
DISCID=4f0b2006
DTITLE=Van Morrison - Cambridge Corn Exchange
DYEAR=1994
DGENRE=Celtic
TTITLE0=Vanlose Stairway > Trans-Euro Train > Fool For You
TTITLE1=Have I Told You Lately ...
TTITLE2=Shakin' All Over > Can't Sit Down > Pretty Thing > Gloria
TTITLE3=And The Healing Has Begun
TTITLE4=Northern Muse (Solid Ground) > Auld Lang Syne
TTITLE5=Buona Sera
EXTD=
EXTT0=
EXTT1=
EXTT2=
EXTT3=
EXTT4=
EXTT5=
PLAYORDER=
